<svg width="70" height="74" viewBox="0 0 70 74" fill="none" xmlns="http://www.w3.org/2000/svg">
<path d="M27.9215 14.8H13.9608V29.5986H27.9215V14.8Z" fill="black"/>
<path d="M55.8436 14.8H41.8825V29.5986H55.8436V14.8Z" fill="black"/>
<path d="M27.9215 44.3982H13.9608V59.1992H27.9215V44.3982Z" fill="black"/>
<path d="M55.8436 44.3982H41.8825V59.1992H55.8436V44.3982Z" fill="black"/>
<path d="M13.9609 0H0V14.7997H13.9609V0Z" fill="black"/>
<path d="M41.8823 0H27.9217V14.7997H41.8823V0Z" fill="black"/>
<path d="M13.9609 29.5981H0V44.3982H13.9609V29.5981Z" fill="black"/>
<path d="M70 0H56.0393V14.7997H70V0Z" fill="black"/>
<path d="M70 29.5981H56.0393V44.3982H70V29.5981Z" fill="black"/>
<path d="M41.8823 29.5981H27.9217V44.3982H41.8823V29.5981Z" fill="black"/>
<path d="M13.9609 59.1992H0V74H13.9609V59.1992Z" fill="black"/>
<path d="M70 59.1992H56.0393V74H70V59.1992Z" fill="black"/>
<path d="M41.8823 59.1992H27.9217V74H41.8823V59.1992Z" fill="black"/>
</svg>
