<svg width="107" height="35" viewBox="0 0 107 35" fill="none" xmlns="http://www.w3.org/2000/svg">
<path d="M12.2655 0.0588531C8.18327 0.559742 4.57687 2.7553 2.32287 6.09456C1.11239 7.88941 0.411146 9.7594 0.118961 11.9299C-0.0396537 13.1654 -0.0396537 13.9752 0.118961 15.1857C0.803509 20.4367 4.46 24.8028 9.56071 26.4724C10.9799 26.9399 12.1403 27.1152 13.8517 27.1235C16.8152 27.1235 19.0609 26.4891 21.2815 25.0198C22.1414 24.4521 23.5439 23.1164 24.195 22.2566C25.105 21.0461 25.8229 19.4015 26.2236 17.6067C26.3822 16.9054 26.4073 16.5214 26.4073 14.8685C26.4156 13.8082 26.3822 12.8065 26.3488 12.6312L26.282 12.3223H20.071H13.8517V14.2006V16.0789H18.2344H22.6172V16.321C22.6172 16.8386 22.1915 18.2328 21.774 19.0843C21.3817 19.8773 21.2565 20.0443 20.455 20.8374C19.2112 22.0729 18.1676 22.6489 16.281 23.1582C15.563 23.3502 15.3209 23.3669 13.9769 23.3752C12.8582 23.3752 12.3156 23.3418 11.8648 23.2333C9.84455 22.7658 8.25005 21.9059 6.93939 20.5786C6.09623 19.7104 5.65378 19.101 5.12785 18.0408C4.30973 16.3878 4.03424 15.0438 4.10937 13.082C4.16781 11.4875 4.4433 10.4189 5.15289 9.02476C6.80582 5.75229 10.12 3.71534 13.8016 3.72369C16.139 3.73204 17.9005 4.34145 19.8707 5.82742L20.5469 6.33666L20.7305 6.1363C20.8391 6.02778 21.3984 5.43506 21.9911 4.82564L23.0597 3.71534L22.7758 3.42315C22.3918 3.02244 21.2064 2.15424 20.4717 1.72848C19.2613 1.02724 17.5833 0.426172 16.1891 0.175728C15.2458 0.00876427 13.1421 -0.0580215 12.2655 0.0588531Z" fill="#919191"/>
<path d="M85.2283 13.7415V26.5977L87.1734 26.581L89.1102 26.5559L89.1018 26.3639C89.1018 26.2637 89.0935 20.4868 89.0851 13.5328L89.0684 0.885374H87.1484H85.2283V13.7415Z" fill="#919191"/>
<path d="M35.1895 9.73418C33.9456 9.93454 32.7435 10.3686 31.7417 10.9864C30.932 11.4789 29.8467 12.4807 29.3375 13.1987C28.8032 13.9416 28.2439 15.1605 27.9851 16.1205C27.7847 16.8718 27.768 17.0972 27.768 18.4163C27.768 19.7436 27.7847 19.9523 27.9934 20.7036C28.5694 22.8157 29.7716 24.4937 31.5664 25.6791C33.044 26.6475 34.2462 27.0148 36.1412 27.0733C38.1197 27.1401 39.5305 26.8061 40.9915 25.9296C42.995 24.7191 44.3474 22.9493 44.9568 20.7537C45.249 19.6852 45.3242 17.882 45.1238 16.8218C44.3391 12.6393 41.0416 9.82601 36.7673 9.69244C36.1746 9.67574 35.4567 9.69244 35.1895 9.73418ZM37.8192 13.2905C39.0714 13.6578 40.2151 14.6262 40.8078 15.8367C41.267 16.78 41.4256 17.548 41.3755 18.6667C41.267 20.9958 39.9897 22.7656 37.8943 23.4752C37.2515 23.6923 35.6987 23.6923 35.0559 23.4752C34.2128 23.1914 33.7703 22.9076 33.1192 22.2564C32.0924 21.2379 31.5581 19.9189 31.5497 18.4329C31.5497 16.6047 32.4179 14.8432 33.762 13.95C34.3297 13.5743 35.0726 13.2654 35.6654 13.1569C36.2247 13.0567 37.2432 13.1235 37.8192 13.2905Z" fill="#919191"/>
<path d="M54.3569 9.7345C51.3181 10.1185 48.6384 12.1555 47.4863 14.9437C46.9854 16.1626 46.8018 17.2144 46.8519 18.667C46.902 20.1613 47.1441 21.1715 47.7451 22.3819C48.9473 24.8029 51.1762 26.4642 53.8977 26.9818C54.9329 27.1738 56.9531 27.107 57.8881 26.8482C61.6615 25.8214 64.1576 22.6992 64.3329 18.8256C64.4581 16.1375 63.6066 13.9587 61.7283 12.1137C60.5679 10.97 59.1153 10.1936 57.5041 9.85972C56.7444 9.70111 55.1499 9.63432 54.3569 9.7345ZM57.1117 13.3576C59.157 14.0755 60.5178 16.0874 60.5178 18.3915C60.5178 19.3182 60.3258 20.0945 59.9 20.9711C59.5911 21.5889 59.4075 21.8393 58.8982 22.3235C57.9215 23.2501 56.8696 23.6759 55.5673 23.6759C54.2233 23.6759 53.2382 23.2501 52.203 22.215C51.6771 21.6974 51.46 21.4052 51.2263 20.921C50.1995 18.7421 50.6002 16.1208 52.203 14.5347C53.5471 13.2073 55.4004 12.7649 57.1117 13.3576Z" fill="#919191"/>
<path d="M72.9315 9.77605C69.5588 10.4189 66.8206 13.1654 66.1027 16.6215C65.7771 18.191 65.9357 20.1361 66.5201 21.6304C67.2965 23.6423 68.8158 25.3119 70.7443 26.2636C73.5075 27.6411 76.5963 27.3405 78.5915 25.504L78.9588 25.1617L79.0173 25.3954C79.1174 25.7711 78.9839 27.5159 78.8002 28.2088C78.3745 29.9034 77.3142 30.9803 75.6697 31.3977C75.0936 31.548 73.9833 31.5647 73.3572 31.4311C72.2219 31.1974 71.0281 30.2874 70.2935 29.0937L69.9011 28.4508L68.3984 29.0686C67.5803 29.4109 66.8373 29.7198 66.7538 29.7532C66.6119 29.8116 66.6286 29.8784 66.9709 30.5379C68.0061 32.5498 69.7842 34.0107 72.0132 34.6535C74.9935 35.5217 78.3828 34.7203 80.353 32.675C81.48 31.5146 82.1562 30.0787 82.5151 28.1002C82.6487 27.3906 82.6654 26.4306 82.6904 18.767L82.7155 10.2352H80.8789H79.0507V10.903C79.0507 11.2704 79.034 11.5709 79.0089 11.5709C78.9839 11.5709 78.675 11.3372 78.316 11.0533C77.5981 10.4856 76.7466 10.0515 75.9451 9.85953C75.1688 9.66752 73.7162 9.62578 72.9315 9.77605ZM76.0537 13.3574C77.2308 13.7665 78.0739 14.5428 78.675 15.7867C79.5349 17.5482 79.4931 19.51 78.5665 21.2881C77.1556 23.9929 73.5325 24.4938 71.3203 22.2899C70.3018 21.2798 69.7842 19.9942 69.7842 18.4498C69.7842 15.77 71.4538 13.6078 73.8748 13.157C74.4341 13.0485 75.4359 13.1404 76.0537 13.3574Z" fill="#919191"/>
<path d="M97.667 9.75105C97.3665 9.79279 96.7571 9.9514 96.3063 10.1017C93.4846 11.0701 91.4894 13.5161 90.9301 16.7051C90.7464 17.7569 90.8215 19.6937 91.072 20.6704C91.7732 23.3418 93.5347 25.4539 95.8722 26.4223C98.8024 27.6495 102.15 27.2655 104.579 25.4289C105.214 24.953 106.424 23.7509 106.6 23.417C106.675 23.2834 106.516 23.1498 105.239 22.2983C104.437 21.7724 103.753 21.3383 103.719 21.3383C103.686 21.3383 103.578 21.4384 103.486 21.5637C102.818 22.4235 101.966 23.0747 101.048 23.4337C100.606 23.6006 100.405 23.6257 99.3784 23.6257C98.3933 23.6257 98.1345 23.5923 97.7338 23.442C96.7821 23.0914 95.8889 22.34 95.3713 21.4551C95.2461 21.2464 95.1626 21.0628 95.1793 21.0461C95.1876 21.0377 97.8256 19.9441 101.023 18.6168L106.833 16.2209L106.666 15.7534C105.097 11.429 101.724 9.17503 97.667 9.75105ZM100.355 13.2406C101.031 13.4493 101.708 13.9168 102.075 14.4344C102.233 14.6514 102.35 14.8434 102.334 14.8601C102.225 14.9436 94.645 18.0825 94.5448 18.0825C94.4363 18.0825 94.5031 17.3228 94.6617 16.7134C94.8954 15.7951 95.2711 15.1273 95.9556 14.4427C96.8656 13.5161 97.859 13.082 99.0945 13.082C99.5954 13.0736 99.9878 13.1237 100.355 13.2406Z" fill="#919191"/>
</svg>
