<svg width="130" height="35" viewBox="0 0 130 35" fill="none" xmlns="http://www.w3.org/2000/svg">
<path d="M121.81 23.6012C117.722 23.6012 116.278 24.3704 116.278 27.1588C116.278 28.9737 117.397 30.2116 118.898 30.2116C119.999 30.2116 121.111 29.6179 121.985 28.6131L122.081 23.6012H121.803H121.81ZM114.134 11.3418C116.336 10.3815 118.223 9.97167 120.307 9.97167C124.116 9.97167 126.713 11.426 127.61 14.0221C127.904 14.9788 128.039 15.7047 128.012 18.2167L127.869 26.0531V26.4665C127.869 28.9665 128.27 29.928 130 31.2501L126.855 35C125.469 34.4027 124.246 33.3534 123.664 32.1755C123.228 32.6359 122.738 33.0818 122.29 33.4015C121.194 34.2224 119.588 34.6755 117.736 34.6755C112.704 34.6755 109.967 32.0313 109.967 27.38C109.967 21.8993 113.648 19.3513 120.834 19.3513C121.266 19.3513 121.676 19.3513 122.162 19.4032V18.4513C122.162 15.8432 121.671 14.9778 119.494 14.9778C117.619 14.9778 115.395 15.9297 112.972 17.622L110.456 13.2471C111.656 12.4707 112.541 12.0211 114.137 11.3361L114.134 11.3418ZM104.854 6.14386V24.2925C104.854 28.3069 104.905 28.8477 105.268 29.4847C105.476 29.8982 105.955 30.1217 106.444 30.1217C106.668 30.1217 106.803 30.1217 107.115 30.0377L108.122 33.6795C107.115 34.0881 105.874 34.3153 104.593 34.3153C102.078 34.3153 100.039 33.0893 99.3289 31.1302C98.877 29.9428 98.8036 29.2072 98.8036 25.89V8.46245C98.8036 5.40962 98.7151 3.54668 98.4868 1.44336L104.532 0.0371387C104.775 1.31115 104.848 2.81352 104.848 6.10673L104.854 6.14386ZM92.619 6.10673V24.2554C92.619 28.2697 92.6655 28.8106 93.0209 29.4476C93.2445 29.861 93.7232 30.0846 94.2205 30.0846C94.4325 30.0846 94.5606 30.0846 94.8809 30.0006L95.8918 33.6423C94.8809 34.051 93.644 34.2781 92.3628 34.2781C89.8354 34.2781 87.8089 33.0522 87.11 31.0931C86.6663 29.9056 86.5696 29.1701 86.5696 25.8528V8.42531C86.5696 5.37249 86.4927 3.50954 86.2726 1.40622L92.329 0C92.541 1.27401 92.6342 2.77639 92.6342 6.06959L92.619 6.10673ZM81.8607 9.84355V33.7613H75.9441V10.8051L81.8607 9.84475V9.84355ZM82.5549 3.96626C82.5549 6.06959 80.936 7.74022 78.8861 7.74022C76.9061 7.74022 75.2755 6.05757 75.2755 3.96626C75.2755 1.87496 76.9527 0.180285 78.9793 0.180285C80.9593 0.180285 82.5433 1.87496 82.5433 3.96626H82.5549ZM72.5385 10.3964V14.591L62.5454 29.4946H72.9229L71.5019 33.7373H54.8468V29.9513L65.4804 14.6872H55.7319V10.3964H72.5036H72.5385ZM40.2415 16.8266C39.8361 18.0645 39.6195 19.6991 39.6195 22.0308C39.6195 24.711 39.8851 26.7302 40.3684 27.9081C40.9007 29.1821 42.2319 29.8191 43.3733 29.8191C45.9357 29.8191 47.0305 27.4514 47.0305 21.9346C47.0305 18.7857 46.6321 16.7304 45.8425 15.6848C45.2741 14.9156 44.3517 14.4588 43.2918 14.4588C41.8709 14.4588 40.7295 15.3663 40.2519 16.8266H40.2415ZM50.8868 13.4613C52.6921 15.6487 53.4957 18.1967 53.4957 21.9827C53.4957 25.9971 52.6035 28.7374 50.6538 31.009C48.9417 33.0161 46.6822 34.2421 43.1998 34.2421C37.0502 34.2421 33.0436 29.4946 33.0436 22.2231C33.0436 14.8795 37.0968 9.96374 43.1998 9.96374C46.426 9.96374 48.9417 11.1067 50.8868 13.4733V13.4613ZM5.34712 10.0118C5.74079 10.6392 5.91433 11.1993 6.13446 12.3796C7.67186 10.8291 9.57032 10.0118 11.6435 10.0118C13.5186 10.0118 15.056 10.6392 16.244 11.9228C16.5643 12.2437 16.873 12.6584 17.1397 13.0646C19.2128 10.8772 21.0647 10.0118 23.5455 10.0118C25.3159 10.0118 26.993 10.5575 28.0063 11.4661C29.2875 12.6055 29.6835 13.9781 29.6835 17.1631V33.7493H23.9415V18.365C23.9415 15.5766 23.6212 15.0357 22.078 15.0357C20.9739 15.0357 19.4225 15.8122 18.153 16.9948V33.8214H12.5508V18.6775C12.5508 15.7689 12.142 15.0838 10.5009 15.0838C9.40842 15.0838 7.89199 15.6679 6.62247 16.8626V33.8094H0.84557V17.5838C0.84557 14.2185 0.621948 12.7521 0 11.6103L5.35761 10.108" fill="#919191"/>
</svg>
