<svg width="240" height="98" viewBox="0 0 240 98" fill="none" xmlns="http://www.w3.org/2000/svg">
<g clip-path="url(#clip0_22_197)">
<path d="M205.485 71.3928H171.885L205.485 34.2182V71.3928ZM232.958 71.3928V0L166.074 73.9718H114.727C112.516 73.9718 110.748 72.2105 110.748 70.009C110.748 68.4994 111.569 67.2413 112.769 66.5494C112.832 66.5494 112.832 66.4865 112.895 66.4865C118.074 63.8447 123.064 62.4608 125.906 61.6431L126.79 61.3915C128.495 60.8883 130.642 60.448 132.853 59.9448C133.611 59.7561 134.432 59.5674 135.253 59.4416C148.832 56.3594 167.211 51.0757 167.211 29.5006C167.211 24.7202 166.011 19.8768 163.232 15.5366C158.811 8.61746 150.474 3.01926 136.832 1.38383C134.179 1.06932 131.274 0.880616 128.179 0.880616C107.021 0.880616 92.7477 11.9512 92.2425 28.5571V29.4377C92.2425 38.6213 99.6951 46.0436 108.916 46.0436C118.137 46.0436 125.59 38.5584 125.59 29.4377C125.59 20.2542 118.137 12.8318 108.916 12.8318C108.411 12.8318 107.906 12.8318 107.4 12.8947H107.337C103.927 13.2092 100.769 14.5931 98.3056 16.6059C100.2 13.6495 102.79 11.1335 105.948 9.05777C106.011 9.05777 106.011 8.99486 106.074 8.99486C111.758 5.3466 119.337 3.33376 128.242 3.33376C129.19 3.33376 130.137 3.33376 131.021 3.39666H131.59C133.548 3.64827 135.064 5.2837 135.064 7.29653V53.3402C135.064 55.4788 133.548 57.3029 131.59 57.8062C131.464 57.8062 131.4 57.8691 131.274 57.8691C129.379 58.2465 127.674 58.6868 126.158 59.1271L125.337 59.3787C121.232 60.5109 112.706 62.9011 105.19 68.6252C102.537 70.638 100.264 72.8395 98.3056 75.2927C93.3793 81.5199 90.9161 89.1309 90.9161 98H144.537L166.2 74.0347H205.548V98H233.021V74.0347H239.906V71.4557H232.958V71.3928ZM13.9898 74.4121L30.9161 38.3697L47.7793 74.4121H13.9898ZM36.5372 20.2542C33.1267 27.362 26.053 28.1168 26.053 28.1168L29.4635 35.3504V35.4133L0.0950928 97.9371H2.9372L12.7898 76.991H48.9793L58.7688 97.9371H89.0846L44.6846 2.95635L36.5372 20.2542Z" fill="black"/>
</g>
<defs>
<clipPath id="clip0_22_197">
<rect width="240" height="98" fill="white"/>
</clipPath>
</defs>
</svg>
