<svg width="147" height="35" viewBox="0 0 147 35" fill="none" xmlns="http://www.w3.org/2000/svg">
<g clip-path="url(#clip0_60_125)">
<path d="M76.9549 8.79379C76.9549 10.0552 75.632 11.0708 73.9901 11.0708C72.3483 11.0708 71.0262 10.0552 71.0262 8.79379C71.0262 7.53241 72.3032 6.51673 73.9901 6.51673C75.6785 6.55173 76.9549 7.56776 76.9549 8.79379ZM64.733 13.3836V13.9443C64.733 13.9443 63.3199 12.5422 60.31 12.5422C55.3397 12.5422 51.4629 15.4503 51.4629 19.4791C51.4629 23.4732 55.2942 26.4159 60.31 26.4159C63.3654 26.4159 64.733 24.9796 64.733 24.9796V25.5749C64.733 25.8553 65.0073 26.0649 65.3717 26.0649H69.065V12.8915H65.3717C65.0073 12.8926 64.733 13.1383 64.733 13.3836ZM64.733 21.8265C64.0497 22.5975 62.6812 23.2632 61.0398 23.2632C58.1214 23.2632 55.8864 21.8618 55.8864 19.4791C55.8864 17.0967 58.1214 15.6953 61.0398 15.6953C62.6361 15.6953 64.0952 16.396 64.733 17.1317V21.8265ZM71.8016 12.8926H76.1791V26.0659H71.8016V12.8926ZM137.196 12.5419C134.186 12.5419 132.772 13.9439 132.772 13.9439V6.55173H128.394V26.0659H132.088C132.453 26.0659 132.726 25.8206 132.726 25.5753V24.9799C132.726 24.9799 134.14 26.4163 137.149 26.4163C142.12 26.4163 145.996 23.4742 145.996 19.4801C145.996 15.486 142.12 12.5419 137.196 12.5419ZM136.466 23.2278C134.778 23.2278 133.456 22.5629 132.772 21.7915V17.0967C133.456 16.396 134.915 15.6603 136.466 15.6603C139.384 15.6603 141.619 17.0617 141.619 19.4441C141.619 21.8265 139.385 23.2278 136.466 23.2278ZM126.115 18.2534V26.1009H121.736V18.6384C121.736 16.4667 120.824 15.5903 118.363 15.5903C117.041 15.5903 115.673 16.116 114.805 16.887V26.0663H110.428V12.8929H113.893C114.258 12.8929 114.531 13.1383 114.531 13.3836V13.9443C115.808 12.9279 117.495 12.5422 119.182 12.5422C121.098 12.5422 122.694 12.9633 123.971 13.8039C125.521 14.785 126.115 16.046 126.115 18.2534ZM99.8011 12.5419C96.7921 12.5419 95.378 13.9439 95.378 13.9439V6.55173H91.0005V26.0659H94.6938C95.0587 26.0659 95.3325 25.8206 95.3325 25.5753V24.9799C95.3325 24.9799 96.7465 26.4163 99.7555 26.4163C104.727 26.4163 108.603 23.4742 108.603 19.4801C108.648 15.4857 104.772 12.5419 99.8011 12.5419ZM99.0713 23.2278C97.3843 23.2278 96.0623 22.5629 95.378 21.7915V17.0967C96.0623 16.396 97.5215 15.6603 99.0713 15.6603C101.991 15.6603 104.225 17.0617 104.225 19.4441C104.225 21.8265 101.991 23.2278 99.0713 23.2278ZM87.2152 12.5419C88.5373 12.5419 89.2215 12.7176 89.2215 12.7176V15.8353C89.2215 15.8353 85.5734 14.8893 83.2937 16.8867V26.1006H78.9153V12.8926H82.6094C82.9743 12.8926 83.2472 13.1379 83.2472 13.3833V13.9439C84.0691 13.2079 85.8476 12.5419 87.2152 12.5419ZM41.7502 24.8746C41.5224 24.4542 41.2942 23.9989 41.0664 23.6132C40.701 22.9829 40.3361 22.3868 40.0177 21.8265L39.9721 21.7915C36.8251 16.536 33.4512 11.2112 29.8937 5.9564L29.757 5.7457C29.3828 5.20057 29.0182 4.65162 28.6632 4.09898C28.2067 3.46795 27.7511 2.80296 27.0213 2.17192C25.5621 0.770546 23.4643 -0.000488281 21.2302 -0.000488281C18.9496 -0.000488281 16.8977 0.77055 15.3935 2.10157C14.7092 2.73191 14.2072 3.3976 13.7516 4.02864C13.3957 4.58093 13.0311 5.12987 12.6578 5.67535L12.5207 5.88604C9.00917 11.1408 5.58924 16.466 2.44264 21.7211L2.39664 21.7908C2.07774 22.3522 1.71238 22.9475 1.34747 23.5775C1.11969 23.9632 0.891903 24.3835 0.66412 24.8389C0.0709735 26.1349 -0.111717 27.3613 0.116977 28.623C0.618554 31.2507 2.8982 33.4571 6.04525 34.4388C7.23109 34.8245 8.46248 34.9995 9.73898 34.9995C10.1039 34.9995 10.5595 34.9645 10.9248 34.9292C12.43 34.7892 13.9803 34.4042 15.4855 33.7385C17.3551 32.9324 19.1337 31.7768 21.14 30.0951C23.1463 31.7768 24.9704 32.9324 26.7945 33.7385C28.3001 34.4042 29.8499 34.7892 31.3547 34.9292C31.7196 34.9649 32.176 34.9995 32.5409 34.9995C33.8179 34.9995 35.0944 34.8245 36.2342 34.4388C39.4268 33.4571 41.6609 31.2157 42.1629 28.623C42.5251 27.397 42.3429 26.1713 41.7502 24.8746ZM21.1842 26.6963C18.7214 24.3139 17.1251 22.0718 16.5784 20.1805C16.3506 19.3744 16.3046 18.6737 16.4417 18.0431C16.5324 17.4824 16.8066 16.9917 17.1715 16.5713C18.038 15.626 19.4972 15.03 21.1846 15.03C22.8725 15.03 24.3772 15.5906 25.1982 16.5713C25.5631 16.9917 25.8364 17.4827 25.9284 18.0431C26.0646 18.6741 26.0191 19.4094 25.7913 20.1805C25.2423 22.0368 23.646 24.2792 21.1842 26.6963ZM39.3785 28.343C39.0596 30.1647 37.4633 31.7418 35.2292 32.4425C34.135 32.7924 32.9487 32.8978 31.7638 32.7924C30.6239 32.6871 29.4832 32.4068 28.2983 31.8818C26.6564 31.1804 25.015 30.0951 23.0994 28.483C26.1088 25.6456 27.9329 23.0525 28.6172 20.7408C28.9365 19.6544 28.9825 18.6737 28.845 17.7624C28.6632 16.8867 28.2523 16.0806 27.614 15.38C26.1995 13.8029 23.8278 12.8926 21.1837 12.8926C18.5396 12.8926 16.1679 13.8386 14.7543 15.38C14.1161 16.0806 13.7051 16.8867 13.5229 17.7624C13.3407 18.6737 13.3858 19.6894 13.7507 20.7408C14.4345 23.0525 16.3041 25.6803 19.2681 28.518C17.3984 30.1297 15.711 31.2161 14.0691 31.9168C12.8833 32.4425 11.7439 32.7228 10.6041 32.8275C9.37317 32.9328 8.18687 32.7925 7.13816 32.4775C4.90407 31.7768 3.30777 30.1997 2.98887 28.378C2.8522 27.5023 2.94286 26.6266 3.39933 25.6456C3.53555 25.2949 3.76424 24.9449 3.99202 24.5246C4.31137 23.9639 4.67537 23.3678 5.04074 22.7725L5.08675 22.7029C8.23289 17.4824 11.6073 12.1572 15.1188 6.97242L15.2554 6.76173C15.6208 6.23674 15.9857 5.67605 16.3502 5.15036C16.7151 4.58967 17.1251 4.06398 17.6271 3.60829C18.5847 2.76831 19.8612 2.31227 21.2753 2.31227C22.6893 2.31227 23.9658 2.76831 24.9234 3.60829C25.4255 4.06503 25.8355 4.59072 26.2004 5.15036C26.5658 5.67605 26.9307 6.23674 27.2947 6.76173L27.4318 6.97242C30.8897 12.1788 34.2193 17.4348 37.4187 22.7379V22.7729C37.784 23.3343 38.103 23.9642 38.4679 24.5256C38.6956 24.9453 38.9239 25.2953 39.0605 25.646C39.4245 26.5559 39.5612 27.4323 39.3785 28.343Z" fill="#919191"/>
</g>
<defs>
<clipPath id="clip0_60_125">
<rect width="146.018" height="35" fill="white"/>
</clipPath>
</defs>
</svg>
