<svg width="50" height="57" viewBox="0 0 50 57" fill="none" xmlns="http://www.w3.org/2000/svg">
<path d="M30.3571 15.1406C31.3393 15.1406 32.1429 14.3391 32.1429 13.3594C32.1429 12.3797 31.3393 11.5781 30.3571 11.5781C29.375 11.5781 28.5714 12.3797 28.5714 13.3594C28.5714 14.3391 29.375 15.1406 30.3571 15.1406ZM50 39.9V2.85C50 1.06875 48.9286 0 47.1429 0H10.7143C4.64286 0 0 4.63125 0 10.6875V46.3125C0 52.3688 4.64286 57 10.7143 57H47.1429C48.5714 57 50 55.9312 50 54.15V52.3687C50 51.6562 49.6429 50.9438 48.9286 50.2313C48.5714 48.45 48.5714 43.4625 48.9286 42.0375C49.6429 41.6813 50 40.9687 50 39.9V39.9ZM26.7857 6.23438C31.7187 6.23438 35.7143 9.42949 35.7143 13.3594C35.7143 15.6861 34.2969 17.7234 32.1429 19.026V20.4844C32.1429 21.4641 31.3393 22.2656 30.3571 22.2656H23.2143C22.2321 22.2656 21.4286 21.4641 21.4286 20.4844V19.026C19.2746 17.7234 17.8571 15.6861 17.8571 13.3594C17.8571 9.42949 21.8527 6.23438 26.7857 6.23438ZM13.9286 24.8596L14.6317 23.223C14.8214 22.7666 15.346 22.5662 15.8036 22.7555L26.7746 27.4424L37.7567 22.7555C38.2143 22.5662 38.7388 22.7666 38.9286 23.223L39.6317 24.8596C39.8214 25.316 39.6205 25.8393 39.1629 26.0285L31.317 29.3906L39.1629 32.7416C39.6205 32.9309 39.8214 33.4541 39.6317 33.9105L38.9286 35.5471C38.7388 36.0035 38.2143 36.2039 37.7567 36.0146L26.7857 31.3277L15.8147 36.0258C15.3571 36.215 14.8326 36.0146 14.6429 35.5582L13.9397 33.9217C13.75 33.4652 13.9509 32.942 14.4085 32.7527L22.2656 29.4018L14.3973 26.0285C13.9397 25.8393 13.7388 25.316 13.9286 24.8596V24.8596ZM42.5 49.875H10.7143C8.57143 49.875 7.14286 48.45 7.14286 46.3125C7.14286 44.175 8.92857 42.75 10.7143 42.75H42.5V49.875ZM23.2143 15.1406C24.1964 15.1406 25 14.3391 25 13.3594C25 12.3797 24.1964 11.5781 23.2143 11.5781C22.2321 11.5781 21.4286 12.3797 21.4286 13.3594C21.4286 14.3391 22.2321 15.1406 23.2143 15.1406Z" fill="#EC5242"/>
</svg>
