<svg width="131" height="19" viewBox="0 0 131 19" fill="none" xmlns="http://www.w3.org/2000/svg">
<path d="M3.70474 18.8467C1.87665 18.3616 0.866508 17.2747 0.273529 15.1549C-0.0675781 13.9354 -0.0954488 11.1057 0.222608 9.98475C0.870547 7.70127 2.43043 6.166 4.52991 5.74541C5.4207 5.56697 7.06359 5.66147 7.58448 5.9211C8.39153 6.32338 8.38332 6.34827 8.45093 3.29199L8.51178 0.541317L9.75411 0.345485C10.4374 0.237776 11.1356 0.115984 11.3057 0.0748333L11.6151 0V9.32796V18.6559H10.5245H9.43389L9.30112 18.1807C9.2281 17.9193 9.09034 17.6765 8.99499 17.6413C8.89964 17.606 8.48631 17.793 8.07647 18.0568C6.74787 18.912 5.08382 19.2126 3.70474 18.8467ZM6.94548 16.4317C7.31894 16.3052 7.81044 16.0649 8.03771 15.8979L8.45093 15.5941V11.9779C8.45093 9.11584 8.41725 8.33489 8.2894 8.23261C8.03225 8.02689 6.46515 7.85531 5.87471 7.96822C5.116 8.11331 4.78347 8.26277 4.40363 8.62942C3.53221 9.47057 3.21795 10.4802 3.21795 12.4388C3.21795 14.6733 3.69066 15.8584 4.797 16.3978C5.46266 16.7223 6.0598 16.7318 6.94548 16.4317ZM16.629 18.8058C15.7251 18.5491 14.8735 17.788 14.5198 16.9207C14.1234 15.9488 14.1255 14.2702 14.5241 13.4075C15.2506 11.8354 16.8652 11.1534 19.868 11.1502C20.7593 11.149 21.5945 11.0938 21.7239 11.027C22.0621 10.8525 22.0424 9.94932 21.6855 9.26707C21.2643 8.46192 20.5981 8.15572 19.282 8.16237C18.1987 8.16789 17.2595 8.34184 16.3952 8.69716C16.0066 8.85695 15.8587 8.87403 15.7875 8.76735C15.6236 8.52182 15.0226 7.11387 15.0226 6.97552C15.0226 6.81558 16.3848 6.20272 17.3957 5.90787C17.9493 5.74638 18.5231 5.69567 19.7688 5.69811C21.1835 5.70093 21.5072 5.73806 22.0996 5.96564C23.0691 6.33812 23.7938 6.91177 24.197 7.62587C24.8475 8.77776 24.877 9.05661 24.8786 14.0517L24.8801 18.6559H23.8394H22.7988L22.6088 18.216C22.5043 17.9741 22.36 17.7406 22.2881 17.6971C22.2163 17.6536 21.7566 17.8301 21.2667 18.0893C19.583 18.98 18.0673 19.2142 16.629 18.8058ZM20.6589 16.3642C21.9037 15.8839 21.9745 15.7661 21.9332 14.245L21.8985 12.9667L20.5752 12.9332C18.9109 12.8911 18.1285 13.0843 17.5963 13.6686C16.6658 14.69 16.9491 16.311 18.1192 16.6607C18.6849 16.8297 19.7855 16.7013 20.6589 16.3642ZM30.6428 18.7735C29.6969 18.4751 28.7842 17.7105 28.4321 16.9214C27.9974 15.9474 27.9244 15.0135 27.9234 10.4153L27.9224 5.98702H29.5613H31.2002L31.2346 10.6098L31.2691 15.2326L31.6406 15.6748C31.8449 15.9181 32.2008 16.1828 32.4316 16.2632C33.1123 16.5002 34.4686 16.4597 35.1004 16.1835C36.1572 15.7214 36.0761 16.1705 36.0761 10.7783V5.98702H37.7191H39.362V12.3259V18.6647L38.2487 18.631L37.1355 18.5973L36.9672 18.0401C36.8622 17.6924 36.7297 17.4829 36.6149 17.4829C36.5136 17.4829 36.1456 17.6874 35.7971 17.9375C34.8517 18.6157 33.9157 18.9115 32.5469 18.9646C31.6257 19.0004 31.2388 18.9616 30.6428 18.7735ZM71.7799 16.1715C70.4492 14.6099 69.2267 13.1552 69.0633 12.9389C68.8636 12.6746 68.684 12.557 68.5156 12.5802C68.2711 12.6139 68.2643 12.6871 68.2326 15.6388L68.2001 18.6629L66.6506 18.6301L65.101 18.5973L65.0698 9.59655L65.0386 0.595831L65.3132 0.538496C65.4642 0.506965 66.0806 0.397843 66.683 0.296011C67.2854 0.194167 67.8741 0.0833678 67.9913 0.04976C68.1921 -0.00784836 68.2043 0.319792 68.2043 5.78879C68.2043 10.727 68.2306 11.61 68.3817 11.7308C68.6312 11.9304 68.7559 11.7899 71.3684 8.36522C72.6066 6.74199 73.69 5.41087 73.7758 5.40719C73.9011 5.40179 75.6215 6.47411 76.0336 6.81444C76.0894 6.86057 75.2214 8.01383 74.1046 9.37726C72.9878 10.7407 72.1015 11.9213 72.1349 12.0009C72.1684 12.0804 73.187 13.2723 74.3986 14.6494C75.6101 16.0266 76.6014 17.1703 76.6014 17.1911C76.6014 17.2205 75.252 18.2453 74.3356 18.9119C74.2459 18.9771 73.3738 18.042 71.7799 16.1715ZM80.9216 18.8437C79.1312 18.298 78.3792 17.2009 78.3807 15.1368C78.3817 13.8055 78.6724 13.028 79.4095 12.3862C80.46 11.4713 81.6441 11.1527 84.0025 11.1502C84.8937 11.149 85.7289 11.0938 85.8584 11.027C86.1966 10.8525 86.1768 9.94932 85.8199 9.26707C85.3976 8.45982 84.732 8.15481 83.4164 8.16577C82.3244 8.17492 81.3767 8.34896 80.5344 8.6952C80.1498 8.8533 79.999 8.87045 79.9169 8.76538C79.753 8.55573 79.157 7.16622 79.157 6.99374C79.157 6.77157 80.6468 6.14923 81.8343 5.87533C83.6245 5.46243 85.5523 5.5963 86.8244 6.22186C87.5402 6.57383 88.1482 7.2225 88.5737 8.08811L88.9536 8.86099L88.9913 13.7585L89.029 18.6559H88.0117C86.9677 18.6559 86.7022 18.5578 86.7022 18.1716C86.7022 18.0601 86.6174 17.887 86.5136 17.7871C86.3433 17.6229 86.2284 17.6552 85.3271 18.121C84.7782 18.4047 84.0317 18.7203 83.6681 18.8223C82.8863 19.0418 81.604 19.0518 80.9216 18.8437ZM84.6614 16.4277C84.9885 16.3078 85.4464 16.07 85.6789 15.8991L86.1015 15.5883L86.0672 14.2775L86.0329 12.9667H84.5117C82.8295 12.9667 82.3835 13.0763 81.7514 13.6455C80.7481 14.549 81.0499 16.2892 82.2748 16.6637C82.7522 16.8097 83.9388 16.6923 84.6614 16.4277ZM98.3838 15.7829C96.7001 13.7953 95.5687 12.5561 95.4378 12.5561C95.2417 12.5561 95.2226 12.7919 95.1927 15.5767L95.1602 18.5973L93.6078 18.6301L92.0554 18.6629L92.0866 9.59848L92.1178 0.534014L93.6195 0.28719C94.6653 0.115304 95.1364 0.0794343 95.1712 0.169055C95.1986 0.239825 95.2347 2.88431 95.2514 6.04568C95.278 11.0637 95.3051 11.7936 95.4644 11.7936C95.6497 11.7936 96.0303 11.3277 98.9013 7.58597C99.7859 6.4331 100.575 5.46564 100.655 5.43607C100.836 5.36905 103.039 6.78323 102.987 6.93327C102.966 6.99345 102.086 8.09341 101.032 9.37762C99.9779 10.6618 99.1153 11.8003 99.1153 11.9076C99.1153 12.015 100.101 13.232 101.306 14.6121C102.511 15.9923 103.494 17.1632 103.49 17.2142C103.485 17.2916 101.407 18.8851 101.188 18.9795C101.149 18.9962 99.8872 17.5577 98.3838 15.7829ZM107.817 18.8505C106.299 18.3669 105.564 17.4834 105.324 15.8568C105.012 13.7372 105.889 12.2326 107.848 11.5268C108.564 11.2689 108.909 11.2252 110.555 11.1846C113.141 11.1208 112.989 11.175 112.989 10.3192C112.989 9.49753 112.786 9.04959 112.228 8.64325C111.337 7.99318 109.8 7.96338 107.903 8.55937C106.749 8.92184 106.891 8.99577 106.37 7.75763C106.14 7.2119 106.089 6.96514 106.183 6.85611C106.254 6.77357 106.705 6.54838 107.186 6.35569C109.995 5.22985 113.12 5.44441 114.636 6.86715C115.869 8.02452 116.055 9.1301 116.003 14.9913L115.97 18.5973H114.886H113.802L113.669 18.2212C113.427 17.5346 113.326 17.5199 112.417 18.0388C111.962 18.2988 111.315 18.6043 110.981 18.7177C110.196 18.9836 108.463 19.0563 107.817 18.8505ZM111.562 16.4255C112.453 16.0994 112.958 15.7254 113.04 15.3318C113.153 14.7864 113.122 13.5381 112.986 13.1951L112.862 12.8804L111.313 12.9273C109.945 12.9688 109.701 13.008 109.227 13.2637C108.468 13.6728 108.207 14.0631 108.146 14.8818C108.079 15.7756 108.323 16.2474 109.011 16.5575C109.616 16.8297 110.597 16.779 111.562 16.4255ZM122.923 18.8217C121.322 18.4481 119.902 17.3817 119.215 16.037C118.675 14.9803 118.451 13.9099 118.451 12.3907C118.451 8.21204 120.834 5.63511 124.7 5.63511C128.655 5.63511 131 8.14579 131 12.3801C131 15.9338 129.311 18.2579 126.278 18.8763C125.414 19.0527 123.801 19.0264 122.923 18.8217ZM126.079 16.4235C126.751 16.1098 127.281 15.399 127.531 14.4767C127.749 13.6667 127.776 11.4403 127.577 10.5384C127.174 8.70753 125.964 7.71506 124.382 7.9174C123.595 8.01803 123.207 8.22257 122.683 8.81292C122.116 9.45102 121.886 10.1314 121.753 11.559C121.635 12.8394 121.735 13.9731 122.047 14.8788C122.607 16.5024 124.421 17.1973 126.079 16.4235ZM42.8507 18.5777C42.806 18.5347 42.7695 15.6822 42.7695 12.2389V5.9782L43.8921 6.01194L45.0146 6.04568L45.2163 6.57355C45.3272 6.86388 45.5017 7.11754 45.6039 7.13727C45.7061 7.157 46.1528 6.93356 46.5965 6.64075C47.7421 5.8848 48.83 5.58758 50.1766 5.66275C51.4283 5.73262 52.1729 6.02699 52.8057 6.70214C53.3044 7.23424 53.5306 7.26803 53.959 6.87441C54.3765 6.49085 55.58 5.9343 56.3858 5.75218C56.78 5.66309 57.4349 5.62777 58.0287 5.66359C59.5778 5.75705 60.423 6.2387 61.0302 7.37397C61.5637 8.37163 61.6238 9.0364 61.6283 13.9965L61.6326 18.6627L60.0201 18.63L58.4076 18.5973L58.3468 13.9583C58.2794 8.82007 58.2986 8.93939 57.4579 8.44525C56.8342 8.07869 54.5515 8.18007 53.9961 8.599C53.8787 8.68758 53.844 9.84805 53.844 13.6882V18.6627L52.2315 18.63L50.619 18.5973L50.5582 13.9583C50.4908 8.82003 50.51 8.93939 49.6692 8.44525C49.0455 8.07869 46.7629 8.18007 46.2075 8.599C46.09 8.68758 46.0554 9.84736 46.0554 13.6848V18.6559H44.4936C43.6346 18.6559 42.8953 18.6207 42.8507 18.5777Z" fill="#919191"/>
</svg>
