<svg width="50" height="50" viewBox="0 0 50 50" fill="none" xmlns="http://www.w3.org/2000/svg">
<path d="M47.6562 6.25H46.875V8.20312C46.875 8.84766 46.3477 9.375 45.7031 9.375H41.7969C41.1523 9.375 40.625 8.84766 40.625 8.20312V6.25H9.375V8.20312C9.375 8.84766 8.84766 9.375 8.20312 9.375H4.29688C3.65234 9.375 3.125 8.84766 3.125 8.20312V6.25H2.34375C1.04492 6.25 0 7.29492 0 8.59375V41.4062C0 42.7051 1.04492 43.75 2.34375 43.75H3.125V41.7969C3.125 41.1523 3.65234 40.625 4.29688 40.625H8.20312C8.84766 40.625 9.375 41.1523 9.375 41.7969V43.75H40.625V41.7969C40.625 41.1523 41.1523 40.625 41.7969 40.625H45.7031C46.3477 40.625 46.875 41.1523 46.875 41.7969V43.75H47.6562C48.9551 43.75 50 42.7051 50 41.4062V8.59375C50 7.29492 48.9551 6.25 47.6562 6.25ZM9.375 36.3281C9.375 36.9727 8.84766 37.5 8.20312 37.5H4.29688C3.65234 37.5 3.125 36.9727 3.125 36.3281V32.4219C3.125 31.7773 3.65234 31.25 4.29688 31.25H8.20312C8.84766 31.25 9.375 31.7773 9.375 32.4219V36.3281ZM9.375 26.9531C9.375 27.5977 8.84766 28.125 8.20312 28.125H4.29688C3.65234 28.125 3.125 27.5977 3.125 26.9531V23.0469C3.125 22.4023 3.65234 21.875 4.29688 21.875H8.20312C8.84766 21.875 9.375 22.4023 9.375 23.0469V26.9531ZM9.375 17.5781C9.375 18.2227 8.84766 18.75 8.20312 18.75H4.29688C3.65234 18.75 3.125 18.2227 3.125 17.5781V13.6719C3.125 13.0273 3.65234 12.5 4.29688 12.5H8.20312C8.84766 12.5 9.375 13.0273 9.375 13.6719V17.5781ZM35.9375 37.8906C35.9375 38.5352 35.4102 39.0625 34.7656 39.0625H15.2344C14.5898 39.0625 14.0625 38.5352 14.0625 37.8906V28.5156C14.0625 27.8711 14.5898 27.3438 15.2344 27.3438H34.7656C35.4102 27.3438 35.9375 27.8711 35.9375 28.5156V37.8906ZM35.9375 21.4844C35.9375 22.1289 35.4102 22.6562 34.7656 22.6562H15.2344C14.5898 22.6562 14.0625 22.1289 14.0625 21.4844V12.1094C14.0625 11.4648 14.5898 10.9375 15.2344 10.9375H34.7656C35.4102 10.9375 35.9375 11.4648 35.9375 12.1094V21.4844ZM46.875 36.3281C46.875 36.9727 46.3477 37.5 45.7031 37.5H41.7969C41.1523 37.5 40.625 36.9727 40.625 36.3281V32.4219C40.625 31.7773 41.1523 31.25 41.7969 31.25H45.7031C46.3477 31.25 46.875 31.7773 46.875 32.4219V36.3281ZM46.875 26.9531C46.875 27.5977 46.3477 28.125 45.7031 28.125H41.7969C41.1523 28.125 40.625 27.5977 40.625 26.9531V23.0469C40.625 22.4023 41.1523 21.875 41.7969 21.875H45.7031C46.3477 21.875 46.875 22.4023 46.875 23.0469V26.9531ZM46.875 17.5781C46.875 18.2227 46.3477 18.75 45.7031 18.75H41.7969C41.1523 18.75 40.625 18.2227 40.625 17.5781V13.6719C40.625 13.0273 41.1523 12.5 41.7969 12.5H45.7031C46.3477 12.5 46.875 13.0273 46.875 13.6719V17.5781Z" fill="#EC5242"/>
</svg>
