<svg width="484" height="350" viewBox="0 0 484 350" fill="none" xmlns="http://www.w3.org/2000/svg">
<rect width="484" height="350" fill="white"/>
<mask id="mask0_93_192" style="mask-type:alpha" maskUnits="userSpaceOnUse" x="21" y="103" width="50" height="50">
<circle cx="46" cy="128" r="25" fill="#C4C4C4"/>
</mask>
<g mask="url(#mask0_93_192)">
<line x1="21" y1="104.5" x2="72" y2="104.5" stroke="black"/>
<line x1="21" y1="104.5" x2="72" y2="104.5" stroke="black"/>
<line x1="21" y1="106.5" x2="72" y2="106.5" stroke="black"/>
<line x1="21" y1="106.5" x2="72" y2="106.5" stroke="black"/>
<line x1="21" y1="108.5" x2="72" y2="108.5" stroke="black"/>
<line x1="21" y1="108.5" x2="72" y2="108.5" stroke="black"/>
<line x1="21" y1="110.5" x2="72" y2="110.5" stroke="black"/>
<line x1="21" y1="110.5" x2="72" y2="110.5" stroke="black"/>
<line x1="21" y1="112.5" x2="72" y2="112.5" stroke="black"/>
<line x1="21" y1="112.5" x2="72" y2="112.5" stroke="black"/>
<line x1="21" y1="114.5" x2="72" y2="114.5" stroke="black"/>
<line x1="21" y1="114.5" x2="72" y2="114.5" stroke="black"/>
<line x1="21" y1="116.5" x2="72" y2="116.5" stroke="black"/>
<line x1="21" y1="116.5" x2="72" y2="116.5" stroke="black"/>
<line x1="21" y1="118.5" x2="72" y2="118.5" stroke="black"/>
<line x1="21" y1="118.5" x2="72" y2="118.5" stroke="black"/>
<line x1="21" y1="120.5" x2="72" y2="120.5" stroke="black"/>
<line x1="21" y1="120.5" x2="72" y2="120.5" stroke="black"/>
<line x1="21" y1="122.5" x2="72" y2="122.5" stroke="black"/>
<line x1="21" y1="122.5" x2="72" y2="122.5" stroke="black"/>
<line x1="21" y1="124.5" x2="72" y2="124.5" stroke="black"/>
<line x1="21" y1="124.5" x2="72" y2="124.5" stroke="black"/>
<line x1="21" y1="126.5" x2="72" y2="126.5" stroke="black"/>
<line x1="21" y1="126.5" x2="72" y2="126.5" stroke="black"/>
<line x1="21" y1="128.5" x2="72" y2="128.5" stroke="black"/>
<line x1="21" y1="128.5" x2="72" y2="128.5" stroke="black"/>
<line x1="21" y1="130.5" x2="72" y2="130.5" stroke="black"/>
<line x1="21" y1="130.5" x2="72" y2="130.5" stroke="black"/>
<line x1="21" y1="132.5" x2="72" y2="132.5" stroke="black"/>
<line x1="21" y1="132.5" x2="72" y2="132.5" stroke="black"/>
<line x1="21" y1="134.5" x2="72" y2="134.5" stroke="black"/>
<line x1="21" y1="134.5" x2="72" y2="134.5" stroke="black"/>
<line x1="21" y1="136.5" x2="72" y2="136.5" stroke="black"/>
<line x1="21" y1="136.5" x2="72" y2="136.5" stroke="black"/>
<line x1="21" y1="138.5" x2="72" y2="138.5" stroke="black"/>
<line x1="21" y1="138.5" x2="72" y2="138.5" stroke="black"/>
<line x1="21" y1="140.5" x2="72" y2="140.5" stroke="black"/>
<line x1="21" y1="140.5" x2="72" y2="140.5" stroke="black"/>
<line x1="21" y1="142.5" x2="72" y2="142.5" stroke="black"/>
<line x1="21" y1="142.5" x2="72" y2="142.5" stroke="black"/>
<line x1="21" y1="144.5" x2="72" y2="144.5" stroke="black"/>
<line x1="21" y1="144.5" x2="72" y2="144.5" stroke="black"/>
<line x1="21" y1="146.5" x2="72" y2="146.5" stroke="black"/>
<line x1="21" y1="146.5" x2="72" y2="146.5" stroke="black"/>
<line x1="21" y1="148.5" x2="72" y2="148.5" stroke="black"/>
<line x1="21" y1="148.5" x2="72" y2="148.5" stroke="black"/>
<line x1="21" y1="150.5" x2="72" y2="150.5" stroke="black"/>
<line x1="21" y1="150.5" x2="72" y2="150.5" stroke="black"/>
<line x1="21" y1="152.5" x2="72" y2="152.5" stroke="black"/>
<line x1="21" y1="152.5" x2="72" y2="152.5" stroke="black"/>
</g>
<mask id="mask1_93_192" style="mask-type:alpha" maskUnits="userSpaceOnUse" x="112" y="103" width="50" height="50">
<circle cx="137" cy="128" r="25" fill="#C4C4C4"/>
</mask>
<g mask="url(#mask1_93_192)">
</g>
<mask id="mask2_93_192" style="mask-type:alpha" maskUnits="userSpaceOnUse" x="112" y="103" width="50" height="50">
<circle cx="137" cy="128" r="25" fill="#C4C4C4"/>
</mask>
<g mask="url(#mask2_93_192)">
<line x1="112" y1="104.5" x2="163" y2="104.5" stroke="#FD3C2B"/>
<line x1="112" y1="104.5" x2="163" y2="104.5" stroke="#FD3C2B"/>
<line x1="112" y1="106.5" x2="163" y2="106.5" stroke="#FD3C2B"/>
<line x1="112" y1="106.5" x2="163" y2="106.5" stroke="#FD3C2B"/>
<line x1="112" y1="108.5" x2="163" y2="108.5" stroke="#FD3C2B"/>
<line x1="112" y1="108.5" x2="163" y2="108.5" stroke="#FD3C2B"/>
<line x1="112" y1="110.5" x2="163" y2="110.5" stroke="#FD3C2B"/>
<line x1="112" y1="110.5" x2="163" y2="110.5" stroke="#FD3C2B"/>
<line x1="112" y1="112.5" x2="163" y2="112.5" stroke="#FD3C2B"/>
<line x1="112" y1="112.5" x2="163" y2="112.5" stroke="#FD3C2B"/>
<line x1="112" y1="114.5" x2="163" y2="114.5" stroke="#FD3C2B"/>
<line x1="112" y1="114.5" x2="163" y2="114.5" stroke="#FD3C2B"/>
<line x1="112" y1="116.5" x2="163" y2="116.5" stroke="#FD3C2B"/>
<line x1="112" y1="116.5" x2="163" y2="116.5" stroke="#FD3C2B"/>
<line x1="112" y1="118.5" x2="163" y2="118.5" stroke="#FD3C2B"/>
<line x1="112" y1="118.5" x2="163" y2="118.5" stroke="#FD3C2B"/>
<line x1="112" y1="120.5" x2="163" y2="120.5" stroke="#FD3C2B"/>
<line x1="112" y1="120.5" x2="163" y2="120.5" stroke="#FD3C2B"/>
<line x1="112" y1="122.5" x2="163" y2="122.5" stroke="#FD3C2B"/>
<line x1="112" y1="122.5" x2="163" y2="122.5" stroke="#FD3C2B"/>
<line x1="112" y1="124.5" x2="163" y2="124.5" stroke="#FD3C2B"/>
<line x1="112" y1="124.5" x2="163" y2="124.5" stroke="#FD3C2B"/>
<line x1="112" y1="126.5" x2="163" y2="126.5" stroke="#FD3C2B"/>
<line x1="112" y1="126.5" x2="163" y2="126.5" stroke="#FD3C2B"/>
<line x1="112" y1="128.5" x2="163" y2="128.5" stroke="#FD3C2B"/>
<line x1="112" y1="128.5" x2="163" y2="128.5" stroke="#FD3C2B"/>
<line x1="112" y1="130.5" x2="163" y2="130.5" stroke="#FD3C2B"/>
<line x1="112" y1="130.5" x2="163" y2="130.5" stroke="#FD3C2B"/>
<line x1="112" y1="132.5" x2="163" y2="132.5" stroke="#FD3C2B"/>
<line x1="112" y1="132.5" x2="163" y2="132.5" stroke="#FD3C2B"/>
<line x1="112" y1="134.5" x2="163" y2="134.5" stroke="#FD3C2B"/>
<line x1="112" y1="134.5" x2="163" y2="134.5" stroke="#FD3C2B"/>
<line x1="112" y1="136.5" x2="163" y2="136.5" stroke="#FD3C2B"/>
<line x1="112" y1="136.5" x2="163" y2="136.5" stroke="#FD3C2B"/>
<line x1="112" y1="138.5" x2="163" y2="138.5" stroke="#FD3C2B"/>
<line x1="112" y1="138.5" x2="163" y2="138.5" stroke="#FD3C2B"/>
<line x1="112" y1="140.5" x2="163" y2="140.5" stroke="#FD3C2B"/>
<line x1="112" y1="140.5" x2="163" y2="140.5" stroke="#FD3C2B"/>
<line x1="112" y1="142.5" x2="163" y2="142.5" stroke="#FD3C2B"/>
<line x1="112" y1="142.5" x2="163" y2="142.5" stroke="#FD3C2B"/>
<line x1="112" y1="144.5" x2="163" y2="144.5" stroke="#FD3C2B"/>
<line x1="112" y1="144.5" x2="163" y2="144.5" stroke="#FD3C2B"/>
<line x1="112" y1="146.5" x2="163" y2="146.5" stroke="#FD3C2B"/>
<line x1="112" y1="146.5" x2="163" y2="146.5" stroke="#FD3C2B"/>
<line x1="112" y1="148.5" x2="163" y2="148.5" stroke="#FD3C2B"/>
<line x1="112" y1="148.5" x2="163" y2="148.5" stroke="#FD3C2B"/>
<line x1="112" y1="150.5" x2="163" y2="150.5" stroke="#FD3C2B"/>
<line x1="112" y1="150.5" x2="163" y2="150.5" stroke="#FD3C2B"/>
<line x1="112" y1="152.5" x2="163" y2="152.5" stroke="#FD3C2B"/>
<line x1="112" y1="152.5" x2="163" y2="152.5" stroke="#FD3C2B"/>
</g>
<mask id="mask3_93_192" style="mask-type:alpha" maskUnits="userSpaceOnUse" x="214" y="162" width="120" height="120">
<circle cx="274" cy="222" r="60" fill="#C4C4C4"/>
</mask>
<g mask="url(#mask3_93_192)">
<path d="M312.552 207.786L315.729 204.032L310.063 198.379L307.125 202.372L312.552 207.786Z" fill="black"/>
<path d="M319.426 214.645L325.296 220.501L328.233 216.508L322.603 210.89L319.426 214.645Z" fill="black"/>
<path d="M324.752 198.156L327.389 201.314L322.406 206.955L319.711 203.863L324.752 198.156Z" fill="#EC5242" stroke="#EC5242" stroke-width="0.260604"/>
<path d="M312.69 211.376L315.327 214.534L310.344 220.175L307.649 217.084L312.69 211.376Z" fill="#EC5242" stroke="#EC5242" stroke-width="0.260604"/>
<path d="M286.92 207.786L290.097 204.032L284.432 198.379L281.494 202.372L286.92 207.786Z" fill="black"/>
<path d="M293.795 214.645L299.664 220.501L302.602 216.508L296.971 210.89L293.795 214.645Z" fill="black"/>
<path d="M299.12 198.156L301.757 201.314L296.775 206.955L294.08 203.863L299.12 198.156Z" fill="#EC5242" stroke="#EC5242" stroke-width="0.260604"/>
<path d="M287.058 211.376L289.695 214.534L284.713 220.175L282.018 217.084L287.058 211.376Z" fill="#EC5242" stroke="#EC5242" stroke-width="0.260604"/>
<path d="M312.552 181.347L315.729 177.592L310.063 171.939L307.125 175.932L312.552 181.347Z" fill="black"/>
<path d="M319.426 188.206L325.296 194.062L328.233 190.069L322.603 184.451L319.426 188.206Z" fill="black"/>
<path d="M324.752 171.718L327.389 174.876L322.406 180.517L319.711 177.425L324.752 171.718Z" fill="#EC5242" stroke="#EC5242" stroke-width="0.260604"/>
<path d="M312.69 184.937L315.327 188.095L310.344 193.736L307.649 190.644L312.69 184.937Z" fill="#EC5242" stroke="#EC5242" stroke-width="0.260604"/>
<path d="M286.92 181.347L290.097 177.592L284.432 171.939L281.494 175.932L286.92 181.347Z" fill="black"/>
<path d="M293.795 188.206L299.664 194.062L302.602 190.069L296.971 184.451L293.795 188.206Z" fill="black"/>
<path d="M299.12 171.718L301.757 174.876L296.775 180.517L294.08 177.425L299.12 171.718Z" fill="#EC5242" stroke="#EC5242" stroke-width="0.260604"/>
<path d="M287.058 184.937L289.695 188.095L284.713 193.736L282.018 190.644L287.058 184.937Z" fill="#EC5242" stroke="#EC5242" stroke-width="0.260604"/>
<path d="M336.675 207.786L339.852 204.032L334.187 198.379L331.249 202.372L336.675 207.786Z" fill="black"/>
<path d="M336.813 211.376L339.45 214.534L334.468 220.175L331.773 217.084L336.813 211.376Z" fill="#EC5242" stroke="#EC5242" stroke-width="0.260604"/>
<path d="M336.675 181.347L339.852 177.592L334.187 171.939L331.249 175.932L336.675 181.347Z" fill="black"/>
<path d="M336.813 184.937L339.45 188.095L334.468 193.736L331.773 190.644L336.813 184.937Z" fill="#EC5242" stroke="#EC5242" stroke-width="0.260604"/>
<path d="M317.918 161.766L323.788 167.622L326.726 163.63L321.095 158.012L317.918 161.766Z" fill="black"/>
<path d="M311.182 158.498L313.819 161.655L308.837 167.296L306.141 164.205L311.182 158.498Z" fill="#EC5242" stroke="#EC5242" stroke-width="0.260604"/>
<path d="M292.287 161.766L298.156 167.622L301.094 163.63L295.464 158.012L292.287 161.766Z" fill="black"/>
<path d="M285.55 158.498L288.187 161.655L283.205 167.296L280.51 164.205L285.55 158.498Z" fill="#EC5242" stroke="#EC5242" stroke-width="0.260604"/>
<path d="M335.306 158.498L337.943 161.655L332.96 167.296L330.265 164.205L335.306 158.498Z" fill="#EC5242" stroke="#EC5242" stroke-width="0.260604"/>
<path d="M211.533 207.786L214.71 204.032L209.045 198.379L206.107 202.372L211.533 207.786Z" fill="black"/>
<path d="M218.408 214.645L224.277 220.501L227.215 216.508L221.584 210.89L218.408 214.645Z" fill="black"/>
<path d="M223.733 198.156L226.37 201.314L221.388 206.955L218.693 203.863L223.733 198.156Z" fill="#EC5242" stroke="#EC5242" stroke-width="0.260604"/>
<path d="M211.671 211.376L214.308 214.534L209.326 220.175L206.631 217.084L211.671 211.376Z" fill="#EC5242" stroke="#EC5242" stroke-width="0.260604"/>
<path d="M211.533 181.347L214.71 177.592L209.045 171.939L206.107 175.932L211.533 181.347Z" fill="black"/>
<path d="M218.408 188.206L224.277 194.062L227.215 190.069L221.584 184.451L218.408 188.206Z" fill="black"/>
<path d="M223.733 171.718L226.37 174.876L221.388 180.517L218.693 177.425L223.733 171.718Z" fill="#EC5242" stroke="#EC5242" stroke-width="0.260604"/>
<path d="M211.671 184.937L214.308 188.095L209.326 193.736L206.631 190.644L211.671 184.937Z" fill="#EC5242" stroke="#EC5242" stroke-width="0.260604"/>
<path d="M261.289 207.786L264.465 204.032L258.8 198.379L255.862 202.372L261.289 207.786Z" fill="black"/>
<path d="M268.163 214.645L274.033 220.501L276.971 216.508L271.34 210.89L268.163 214.645Z" fill="black"/>
<path d="M273.488 198.156L276.126 201.314L271.143 206.955L268.448 203.863L273.488 198.156Z" fill="#EC5242" stroke="#EC5242" stroke-width="0.260604"/>
<path d="M261.426 211.376L264.063 214.534L259.081 220.175L256.386 217.084L261.426 211.376Z" fill="#EC5242" stroke="#EC5242" stroke-width="0.260604"/>
<path d="M235.657 207.786L238.834 204.032L233.169 198.379L230.231 202.372L235.657 207.786Z" fill="black"/>
<path d="M242.532 214.645L248.401 220.501L251.339 216.508L245.708 210.89L242.532 214.645Z" fill="black"/>
<path d="M247.857 198.156L250.494 201.314L245.512 206.955L242.817 203.863L247.857 198.156Z" fill="#EC5242" stroke="#EC5242" stroke-width="0.260604"/>
<path d="M235.795 211.376L238.432 214.534L233.45 220.175L230.755 217.084L235.795 211.376Z" fill="#EC5242" stroke="#EC5242" stroke-width="0.260604"/>
<path d="M261.289 181.347L264.465 177.592L258.8 171.939L255.862 175.932L261.289 181.347Z" fill="black"/>
<path d="M268.163 188.206L274.033 194.062L276.971 190.069L271.34 184.451L268.163 188.206Z" fill="black"/>
<path d="M273.488 171.718L276.126 174.876L271.143 180.517L268.448 177.425L273.488 171.718Z" fill="#EC5242" stroke="#EC5242" stroke-width="0.260604"/>
<path d="M261.426 184.937L264.063 188.095L259.081 193.736L256.386 190.644L261.426 184.937Z" fill="#EC5242" stroke="#EC5242" stroke-width="0.260604"/>
<path d="M235.657 181.347L238.834 177.592L233.169 171.939L230.231 175.932L235.657 181.347Z" fill="black"/>
<path d="M242.532 188.206L248.401 194.062L251.339 190.069L245.708 184.451L242.532 188.206Z" fill="black"/>
<path d="M247.857 171.718L250.494 174.876L245.512 180.517L242.817 177.425L247.857 171.718Z" fill="#EC5242" stroke="#EC5242" stroke-width="0.260604"/>
<path d="M235.795 184.937L238.432 188.095L233.45 193.736L230.755 190.644L235.795 184.937Z" fill="#EC5242" stroke="#EC5242" stroke-width="0.260604"/>
<path d="M216.9 161.766L222.769 167.622L225.707 163.63L220.077 158.012L216.9 161.766Z" fill="black"/>
<path d="M266.655 161.766L272.525 167.622L275.463 163.63L269.832 158.012L266.655 161.766Z" fill="black"/>
<path d="M259.919 158.498L262.556 161.655L257.573 167.296L254.878 164.205L259.919 158.498Z" fill="#EC5242" stroke="#EC5242" stroke-width="0.260604"/>
<path d="M241.024 161.766L246.893 167.622L249.831 163.63L244.201 158.012L241.024 161.766Z" fill="black"/>
<path d="M234.287 158.498L236.924 161.655L231.942 167.296L229.247 164.205L234.287 158.498Z" fill="#EC5242" stroke="#EC5242" stroke-width="0.260604"/>
<path d="M312.552 287.104L315.729 283.349L310.063 277.696L307.125 281.69L312.552 287.104Z" fill="black"/>
<path d="M324.752 277.474L327.389 280.632L322.406 286.273L319.711 283.181L324.752 277.474Z" fill="#EC5242" stroke="#EC5242" stroke-width="0.260604"/>
<path d="M286.92 287.104L290.097 283.349L284.432 277.696L281.494 281.69L286.92 287.104Z" fill="black"/>
<path d="M299.12 277.474L301.757 280.632L296.775 286.273L294.08 283.181L299.12 277.474Z" fill="#EC5242" stroke="#EC5242" stroke-width="0.260604"/>
<path d="M336.675 287.104L339.852 283.349L334.187 277.696L331.249 281.69L336.675 287.104Z" fill="black"/>
<path d="M311.044 260.664L314.221 256.91L308.555 251.257L305.617 255.25L311.044 260.664Z" fill="black"/>
<path d="M317.918 267.523L323.788 273.379L326.726 269.387L321.095 263.769L317.918 267.523Z" fill="black"/>
<path d="M323.244 251.035L325.881 254.193L320.899 259.834L318.203 256.742L323.244 251.035Z" fill="#EC5242" stroke="#EC5242" stroke-width="0.260604"/>
<path d="M311.182 264.254L313.819 267.412L308.837 273.053L306.141 269.961L311.182 264.254Z" fill="#EC5242" stroke="#EC5242" stroke-width="0.260604"/>
<path d="M285.412 260.664L288.589 256.91L282.924 251.257L279.986 255.25L285.412 260.664Z" fill="black"/>
<path d="M292.287 267.523L298.156 273.379L301.094 269.387L295.464 263.769L292.287 267.523Z" fill="black"/>
<path d="M297.612 251.035L300.249 254.193L295.267 259.834L292.572 256.742L297.612 251.035Z" fill="#EC5242" stroke="#EC5242" stroke-width="0.260604"/>
<path d="M285.55 264.254L288.187 267.412L283.205 273.053L280.51 269.961L285.55 264.254Z" fill="#EC5242" stroke="#EC5242" stroke-width="0.260604"/>
<path d="M311.044 234.225L314.221 230.471L308.555 224.818L305.617 228.811L311.044 234.225Z" fill="black"/>
<path d="M317.918 241.083L323.788 246.94L326.726 242.947L321.095 237.329L317.918 241.083Z" fill="black"/>
<path d="M323.244 224.595L325.881 227.753L320.899 233.395L318.203 230.302L323.244 224.595Z" fill="#EC5242" stroke="#EC5242" stroke-width="0.260604"/>
<path d="M311.182 237.815L313.819 240.973L308.837 246.614L306.141 243.522L311.182 237.815Z" fill="#EC5242" stroke="#EC5242" stroke-width="0.260604"/>
<path d="M285.412 234.225L288.589 230.471L282.924 224.818L279.986 228.811L285.412 234.225Z" fill="black"/>
<path d="M292.287 241.083L298.156 246.94L301.094 242.947L295.464 237.329L292.287 241.083Z" fill="black"/>
<path d="M297.612 224.595L300.249 227.753L295.267 233.395L292.572 230.302L297.612 224.595Z" fill="#EC5242" stroke="#EC5242" stroke-width="0.260604"/>
<path d="M285.55 237.815L288.187 240.973L283.205 246.614L280.51 243.522L285.55 237.815Z" fill="#EC5242" stroke="#EC5242" stroke-width="0.260604"/>
<path d="M335.168 260.664L338.345 256.91L332.679 251.257L329.741 255.25L335.168 260.664Z" fill="black"/>
<path d="M335.306 264.254L337.943 267.412L332.96 273.053L330.265 269.961L335.306 264.254Z" fill="#EC5242" stroke="#EC5242" stroke-width="0.260604"/>
<path d="M335.168 234.225L338.345 230.471L332.679 224.818L329.741 228.811L335.168 234.225Z" fill="black"/>
<path d="M335.306 237.815L337.943 240.973L332.96 246.614L330.265 243.522L335.306 237.815Z" fill="#EC5242" stroke="#EC5242" stroke-width="0.260604"/>
<path d="M211.533 287.104L214.71 283.349L209.045 277.696L206.107 281.69L211.533 287.104Z" fill="black"/>
<path d="M223.733 277.474L226.37 280.632L221.388 286.273L218.693 283.181L223.733 277.474Z" fill="#EC5242" stroke="#EC5242" stroke-width="0.260604"/>
<path d="M261.289 287.104L264.465 283.349L258.8 277.696L255.862 281.69L261.289 287.104Z" fill="black"/>
<path d="M273.488 277.474L276.126 280.632L271.143 286.273L268.448 283.181L273.488 277.474Z" fill="#EC5242" stroke="#EC5242" stroke-width="0.260604"/>
<path d="M235.657 287.104L238.834 283.349L233.169 277.696L230.231 281.69L235.657 287.104Z" fill="black"/>
<path d="M247.857 277.474L250.494 280.632L245.512 286.273L242.817 283.181L247.857 277.474Z" fill="#EC5242" stroke="#EC5242" stroke-width="0.260604"/>
<path d="M216.9 267.523L222.769 273.379L225.707 269.387L220.077 263.769L216.9 267.523Z" fill="black"/>
<path d="M222.225 251.035L224.862 254.193L219.88 259.834L217.185 256.742L222.225 251.035Z" fill="#EC5242" stroke="#EC5242" stroke-width="0.260604"/>
<path d="M216.9 241.083L222.769 246.94L225.707 242.947L220.077 237.329L216.9 241.083Z" fill="black"/>
<path d="M222.225 224.595L224.862 227.753L219.88 233.395L217.185 230.302L222.225 224.595Z" fill="#EC5242" stroke="#EC5242" stroke-width="0.260604"/>
<path d="M259.781 260.664L262.958 256.91L257.292 251.257L254.354 255.25L259.781 260.664Z" fill="black"/>
<path d="M266.655 267.523L272.525 273.379L275.463 269.387L269.832 263.769L266.655 267.523Z" fill="black"/>
<path d="M271.981 251.035L274.618 254.193L269.635 259.834L266.94 256.742L271.981 251.035Z" fill="#EC5242" stroke="#EC5242" stroke-width="0.260604"/>
<path d="M259.919 264.254L262.556 267.412L257.573 273.053L254.878 269.961L259.919 264.254Z" fill="#EC5242" stroke="#EC5242" stroke-width="0.260604"/>
<path d="M234.15 260.664L237.326 256.91L231.661 251.257L228.723 255.25L234.15 260.664Z" fill="black"/>
<path d="M241.024 267.523L246.893 273.379L249.831 269.387L244.201 263.769L241.024 267.523Z" fill="black"/>
<path d="M246.349 251.035L248.986 254.193L244.004 259.834L241.309 256.742L246.349 251.035Z" fill="#EC5242" stroke="#EC5242" stroke-width="0.260604"/>
<path d="M234.287 264.254L236.924 267.412L231.942 273.053L229.247 269.961L234.287 264.254Z" fill="#EC5242" stroke="#EC5242" stroke-width="0.260604"/>
<path d="M259.781 234.225L262.958 230.471L257.292 224.818L254.354 228.811L259.781 234.225Z" fill="black"/>
<path d="M266.655 241.083L272.525 246.94L275.463 242.947L269.832 237.329L266.655 241.083Z" fill="black"/>
<path d="M271.981 224.595L274.618 227.753L269.635 233.395L266.94 230.302L271.981 224.595Z" fill="#EC5242" stroke="#EC5242" stroke-width="0.260604"/>
<path d="M259.919 237.815L262.556 240.973L257.573 246.614L254.878 243.522L259.919 237.815Z" fill="#EC5242" stroke="#EC5242" stroke-width="0.260604"/>
<path d="M234.15 234.225L237.326 230.471L231.661 224.818L228.723 228.811L234.15 234.225Z" fill="black"/>
<path d="M241.024 241.083L246.893 246.94L249.831 242.947L244.201 237.329L241.024 241.083Z" fill="black"/>
<path d="M246.349 224.595L248.986 227.753L244.004 233.395L241.309 230.302L246.349 224.595Z" fill="#EC5242" stroke="#EC5242" stroke-width="0.260604"/>
<path d="M234.287 237.815L236.924 240.973L231.942 246.614L229.247 243.522L234.287 237.815Z" fill="#EC5242" stroke="#EC5242" stroke-width="0.260604"/>
</g>
<path d="M101.168 169L96.7472 172.729L100.357 177.009L104.779 173.28L101.168 169Z" fill="black"/>
<path d="M120.516 210.623L116.094 214.352L119.705 218.633L124.126 214.904L120.516 210.623Z" fill="black"/>
<mask id="mask4_93_192" style="mask-type:alpha" maskUnits="userSpaceOnUse" x="46" y="272" width="50" height="50">
<circle cx="71" cy="297" r="25" fill="#C4C4C4"/>
</mask>
<g mask="url(#mask4_93_192)">
<path d="M72.4528 275.519L68.0316 279.248L71.6416 283.528L76.0629 279.8L72.4528 275.519Z" fill="black"/>
<path d="M81.2955 268.062L76.8741 271.791L80.4842 276.071L84.9055 272.342L81.2955 268.062Z" fill="black"/>
<path d="M79.6732 284.08L75.252 287.809L78.8626 292.09L83.2838 288.361L79.6732 284.08Z" fill="black"/>
<path d="M88.5158 276.623L84.0945 280.352L87.7051 284.633L92.1264 280.904L88.5158 276.623Z" fill="black"/>
<path d="M64.4213 274.967L60 278.696L63.6103 282.977L68.0316 279.248L64.4213 274.967Z" fill="black"/>
<path d="M73.2638 267.51L68.8425 271.239L72.4528 275.519L76.874 271.791L73.2638 267.51Z" fill="black"/>
<path d="M71.6416 283.528L67.2203 287.257L70.8307 291.538L75.252 287.809L71.6416 283.528Z" fill="black"/>
<path d="M80.4841 276.071L76.0629 279.8L79.6733 284.081L84.0945 280.352L80.4841 276.071Z" fill="black"/>
<path d="M78.8626 292.09L74.4413 295.819L78.0518 300.1L82.4731 296.371L78.8626 292.09Z" fill="black"/>
<path d="M87.705 284.633L83.2838 288.361L86.8944 292.642L91.3156 288.914L87.705 284.633Z" fill="black"/>
<path d="M56.7413 318.918L60.4193 323.382L64.7407 319.821L61.0627 315.357L56.7413 318.918Z" fill="black"/>
<path d="M72.7405 320.724L76.4185 325.188L80.7406 321.626L77.0627 317.163L72.7405 320.724Z" fill="black"/>
<path d="M65.3845 311.796L69.0625 316.26L73.3846 312.698L69.7066 308.235L65.3845 311.796Z" fill="black"/>
<path d="M57.3331 310.831L61.011 315.294L65.3329 311.733L61.6549 307.27L57.3331 310.831Z" fill="black"/>
<path d="M64.7406 319.821L68.4186 324.285L72.7405 320.724L69.0625 316.26L64.7406 319.821Z" fill="black"/>
<path d="M65.9771 303.708L69.655 308.172L73.9771 304.611L70.2992 300.147L65.9771 303.708Z" fill="black"/>
<path d="M73.3847 312.698L77.0626 317.162L81.3847 313.601L77.7068 309.137L73.3847 312.698Z" fill="black"/>
<path d="M50.4074 301.698L54.0853 306.162L58.4068 302.601L54.7288 298.137L50.4074 301.698Z" fill="black"/>
<path d="M43.0513 292.771L46.7294 297.234L51.0508 293.674L47.3728 289.21L43.0513 292.771Z" fill="black"/>
<path d="M59.0506 294.576L62.7285 299.04L67.0507 295.479L63.3727 291.015L59.0506 294.576Z" fill="black"/>
<path d="M51.6945 285.649L55.3726 290.113L59.6947 286.551L56.0167 282.088L51.6945 285.649Z" fill="black"/>
<path d="M49.7634 309.723L53.4414 314.187L57.7632 310.626L54.0852 306.162L49.7634 309.723Z" fill="black"/>
<path d="M42.4075 300.796L46.0854 305.259L50.4072 301.698L46.7293 297.235L42.4075 300.796Z" fill="black"/>
<path d="M58.4066 302.601L62.0846 307.065L66.4065 303.504L62.7285 299.04L58.4066 302.601Z" fill="black"/>
<path d="M43.6431 284.684L47.321 289.147L51.6429 285.586L47.965 281.123L43.6431 284.684Z" fill="black"/>
<path d="M51.0507 293.674L54.7286 298.137L59.0505 294.576L55.3726 290.112L51.0507 293.674Z" fill="black"/>
<path d="M67.0505 295.479L70.7285 299.942L75.0506 296.381L71.3726 291.917L67.0505 295.479Z" fill="black"/>
<path d="M52.2872 277.561L55.9651 282.025L60.2872 278.464L56.6092 274L52.2872 277.561Z" fill="black"/>
<path d="M59.6947 286.551L63.3727 291.015L67.6947 287.454L64.0168 282.99L59.6947 286.551Z" fill="black"/>
<path d="M85.4528 300.519L81.0316 304.248L84.6416 308.528L89.0629 304.8L85.4528 300.519Z" fill="black"/>
<path d="M94.2955 293.062L89.8741 296.791L93.4842 301.071L97.9055 297.342L94.2955 293.062Z" fill="black"/>
<path d="M92.6732 309.08L88.252 312.809L91.8626 317.09L96.2838 313.361L92.6732 309.08Z" fill="black"/>
<path d="M77.4213 299.967L73 303.696L76.6103 307.977L81.0316 304.248L77.4213 299.967Z" fill="black"/>
<path d="M86.2638 292.51L81.8425 296.239L85.4528 300.519L89.874 296.791L86.2638 292.51Z" fill="black"/>
<path d="M84.6416 308.528L80.2203 312.257L83.8307 316.538L88.252 312.809L84.6416 308.528Z" fill="black"/>
<path d="M95.1684 285L90.7472 288.729L94.3575 293.009L98.7787 289.28L95.1684 285Z" fill="black"/>
<path d="M93.4841 301.071L89.0629 304.8L92.6733 309.081L97.0945 305.352L93.4841 301.071Z" fill="black"/>
</g>
<g clip-path="url(#clip0_93_192)">
<rect width="64" height="64" transform="translate(309 37)" fill="white"/>
<rect x="309" y="49" width="5" height="5" fill="#919191"/>
<rect x="321" y="49" width="5" height="5" fill="#919191"/>
<rect x="357" y="49" width="5" height="5" fill="#919191"/>
<rect x="369" y="49" width="5" height="5" fill="#919191"/>
<rect x="333" y="49" width="5" height="5" fill="#919191"/>
<rect x="345" y="49" width="5" height="5" fill="#919191"/>
<rect x="314" y="56" width="5" height="5" fill="#919191"/>
<rect x="326" y="56" width="5" height="5" fill="#919191"/>
<rect x="362" y="56" width="5" height="5" fill="#919191"/>
<rect x="338" y="56" width="5" height="5" fill="#919191"/>
<rect x="350" y="56" width="5" height="5" fill="#919191"/>
<rect x="314" y="67" width="5" height="5" fill="#919191"/>
<rect x="326" y="67" width="5" height="5" fill="#919191"/>
<rect x="362" y="67" width="5" height="5" fill="#919191"/>
<rect x="338" y="67" width="5" height="5" fill="#919191"/>
<rect x="350" y="67" width="5" height="5" fill="#919191"/>
<rect x="314" y="79" width="5" height="5" fill="#919191"/>
<rect x="326" y="79" width="5" height="5" fill="#919191"/>
<rect x="362" y="79" width="5" height="5" fill="#919191"/>
<rect x="338" y="79" width="5" height="5" fill="#919191"/>
<rect x="350" y="79" width="5" height="5" fill="#919191"/>
<rect x="314" y="91" width="5" height="5" fill="#919191"/>
<rect x="326" y="91" width="5" height="5" fill="#919191"/>
<rect x="362" y="91" width="5" height="5" fill="#919191"/>
<rect x="338" y="91" width="5" height="5" fill="#919191"/>
<rect x="350" y="91" width="5" height="5" fill="#919191"/>
<rect x="314" y="42" width="5" height="5" fill="#919191"/>
<rect x="324" y="42" width="5" height="5" fill="#919191"/>
<rect x="362" y="42" width="5" height="5" fill="#919191"/>
<rect x="338" y="42" width="5" height="5" fill="#919191"/>
<rect x="350" y="42" width="5" height="5" fill="#919191"/>
<rect x="309" y="37" width="5" height="5" fill="#919191"/>
<rect x="319" y="37" width="5" height="5" fill="#919191"/>
<rect x="357" y="37" width="5" height="5" fill="#919191"/>
<rect x="369" y="37" width="5" height="5" fill="#919191"/>
<rect x="333" y="37" width="5" height="5" fill="#919191"/>
<rect x="345" y="37" width="5" height="5" fill="#919191"/>
<rect x="309" y="61" width="5" height="5" fill="#919191"/>
<rect x="321" y="61" width="5" height="5" fill="#919191"/>
<rect x="357" y="61" width="5" height="5" fill="#919191"/>
<rect x="369" y="61" width="5" height="5" fill="#919191"/>
<rect x="333" y="61" width="5" height="5" fill="#919191"/>
<rect x="345" y="61" width="5" height="5" fill="#919191"/>
<rect x="309" y="73" width="5" height="5" fill="#919191"/>
<rect x="321" y="73" width="5" height="5" fill="#919191"/>
<rect x="357" y="73" width="5" height="5" fill="#919191"/>
<rect x="369" y="73" width="5" height="5" fill="#919191"/>
<rect x="333" y="73" width="5" height="5" fill="#919191"/>
<rect x="345" y="73" width="5" height="5" fill="#919191"/>
<rect x="309" y="85" width="5" height="5" fill="#919191"/>
<rect x="321" y="85" width="5" height="5" fill="#919191"/>
<rect x="357" y="85" width="5" height="5" fill="#919191"/>
<rect x="369" y="85" width="5" height="5" fill="#919191"/>
<rect x="333" y="85" width="5" height="5" fill="#919191"/>
<rect x="345" y="85" width="5" height="5" fill="#919191"/>
</g>
<defs>
<clipPath id="clip0_93_192">
<rect width="64" height="64" fill="white" transform="translate(309 37)"/>
</clipPath>
</defs>
</svg>
