<svg width="151" height="85" viewBox="0 0 151 85" fill="none" xmlns="http://www.w3.org/2000/svg">
<g clip-path="url(#clip0_26_204)">
<path d="M61.9881 15.6574L61.674 15.3303C55.6545 9.1799 46.2326 8.56486 39.4802 13.3936L43.9687 26.9244L31.4062 35.2994L37.6875 52.0494L18.8437 33.2057L31.4062 24.8307L27.6637 13.5113C20.8982 8.56486 11.3848 9.14064 5.32597 15.3434L5.0119 15.6574C-1.36095 22.1742 -1.63575 32.5514 4.05663 39.5L31.8119 68.1059C32.741 69.0611 34.2459 69.0611 35.175 68.1059L62.9433 39.4869C68.6357 32.5514 68.3609 22.1742 61.9881 15.6574V15.6574Z" fill="#EC5242"/>
</g>
<path d="M85.49 8H90.35V25.04H100.88V29H85.49V8ZM103.595 8H113.135C115.415 8 117.425 8.44 119.165 9.32C120.925 10.18 122.285 11.4 123.245 12.98C124.225 14.56 124.715 16.4 124.715 18.5C124.715 20.6 124.225 22.44 123.245 24.02C122.285 25.6 120.925 26.83 119.165 27.71C117.425 28.57 115.415 29 113.135 29H103.595V8ZM112.895 25.01C114.995 25.01 116.665 24.43 117.905 23.27C119.165 22.09 119.795 20.5 119.795 18.5C119.795 16.5 119.165 14.92 117.905 13.76C116.665 12.58 114.995 11.99 112.895 11.99H108.455V25.01H112.895ZM147.641 8V29H143.651L133.181 16.25V29H128.381V8H132.401L142.841 20.75V8H147.641Z" fill="black"/>
<path d="M99.27 46.78V55.29H114.174V61.27H99.27V73H91.818V40.8H116.152V46.78H99.27ZM128.649 46.78V55.29H143.553V61.27H128.649V73H121.197V40.8H145.531V46.78H128.649Z" fill="black"/>
<defs>
<clipPath id="clip0_26_204">
<rect width="67" height="67" fill="white" transform="translate(0 6)"/>
</clipPath>
</defs>
</svg>
