<svg width="50" height="40" viewBox="0 0 50 40" fill="none" xmlns="http://www.w3.org/2000/svg">
<g clip-path="url(#clip0_19_184)">
<path d="M25.0523 5C-9.5258 5 -2.88283 35 12.6726 35C15.7898 35 18.725 33.3836 20.5961 30.6359L22.6062 27.6836C23.8297 25.8875 26.2758 25.8875 27.4992 27.6836L29.5094 30.6359C31.3797 33.3836 34.3148 35 37.432 35C52.2648 35 60.1375 5 25.0523 5V5ZM14.375 24.0906C11.1672 24.0906 9.08123 22.0859 8.11873 20.8836C7.71013 20.3734 7.71013 19.6266 8.11873 19.1156C9.08123 17.9125 11.1664 15.9086 14.375 15.9086C17.5836 15.9086 19.6687 17.9133 20.6312 19.1156C21.0398 19.6258 21.0398 20.3727 20.6312 20.8836C19.6687 22.0867 17.5828 24.0906 14.375 24.0906ZM35.625 24.0906C32.4172 24.0906 30.3312 22.0859 29.3687 20.8836C28.9601 20.3734 28.9601 19.6266 29.3687 19.1156C30.3312 17.9125 32.4164 15.9086 35.625 15.9086C38.8336 15.9086 40.9187 17.9133 41.8812 19.1156C42.2898 19.6258 42.2898 20.3727 41.8812 20.8836C40.9187 22.0867 38.8328 24.0906 35.625 24.0906V24.0906Z" fill="#EC5242"/>
</g>
<defs>
<clipPath id="clip0_19_184">
<rect width="50" height="40" fill="white"/>
</clipPath>
</defs>
</svg>
