<svg width="127" height="22" viewBox="0 0 127 22" fill="none" xmlns="http://www.w3.org/2000/svg">
<path d="M0 0.0755909H8.96658C8.96658 0.0755909 17.1116 11.9119 17.354 12.23C17.5971 12.5474 17.6271 12.23 17.6271 12.23C17.2517 10.397 16.8441 9.57445 16.8441 6.64754V0.0755909H25.7765V22H16.8444C16.8444 22 8.86627 10.7952 8.62464 10.4855C8.38473 10.1761 8.35324 10.4855 8.35324 10.4855C8.66003 11.9985 8.93241 12.2516 8.93241 14.8761V22H0V0.0755909ZM39.8581 14.0608L41.0748 9.61108C41.3386 8.7122 41.5194 7.41518 41.5194 7.41518C41.5573 7.21705 41.8426 7.21705 41.8926 7.42481C41.9502 7.73163 42.0942 8.66267 42.3656 9.59183L43.6087 14.0608H39.8581ZM38.1862 19.2668H45.2469L46.0982 22H55.9844L46.814 0.0755909H36.4831L27.5497 22H37.4369L38.1862 19.2668ZM79.5165 0.0755909L69.561 22H61.65L51.6949 0.0755909H61.4467L64.856 10.0494C65.2292 11.1252 65.5028 13.4876 65.5028 13.4876C65.5668 13.674 65.7967 13.6601 65.8328 13.4876C65.8328 13.4876 66.1059 11.1252 66.4813 10.0494L69.7647 0.0755909H79.5165ZM81.4593 0.0755909H98.7479V6.06605H90.8703V8.15818H98.0655V13.8582H90.8703V16.0095H99.0212V22H81.46V0.0755909H81.4593ZM111.96 5.99046H112.679C114.28 5.99046 115.678 6.19329 115.678 7.88047C115.678 9.50778 114.142 9.71132 112.609 9.71132H111.96V5.99046ZM102.823 21.9244H111.961V14.8872C111.961 14.8872 112.019 14.6379 112.194 14.8872L116.225 21.9244H127L121.406 14.7991C120.894 14.1608 120.03 13.6141 119.839 13.4925C119.647 13.369 119.839 13.3164 119.839 13.3164C123.318 12.3284 124.818 10.9344 124.818 7.61801C124.818 2.09354 119.904 0 114.109 0H102.823V21.9244Z" fill="#919191"/>
</svg>
