<svg width="50" height="40" viewBox="0 0 50 40" fill="none" xmlns="http://www.w3.org/2000/svg">
<g clip-path="url(#clip0_19_188)">
<path d="M16.1598 19.1523C13.3567 19.9687 11.4762 22.3711 11.6653 24.9414C12.5559 23.9477 13.916 23.0898 15.5637 22.5258L16.1598 19.1523V19.1523ZM7.484 23.0469L5.00509 9.02266C4.98244 8.89609 5.02697 8.81797 5.02384 8.81562C9.53634 6.31094 14.6426 4.98672 19.7903 4.98672C19.916 4.98672 20.0426 5 20.1692 5.00156C21.259 3.94922 22.6481 3.21797 24.1996 2.97031C25.6754 2.73438 27.1723 2.61484 28.6668 2.55469C27.8863 1.46484 26.7543 0.661719 25.4035 0.445312C23.5356 0.147656 21.6582 0 19.7895 0C13.8004 0 7.89103 1.51719 2.59259 4.45781C0.704313 5.50625 -0.307405 7.69375 0.0808758 9.88906L2.55978 23.9133C3.6715 30.2039 13.2106 35.0133 18.5324 35.0133C18.8129 35.0133 19.0598 34.9773 19.3145 34.9508C18.2582 33.6164 17.0535 31.7883 16.2285 29.6711C12.509 28.657 7.94259 25.6383 7.484 23.0469V23.0469ZM15.1051 12.3078C15.0481 11.9859 14.9309 11.693 14.7871 11.4172C14.1426 12.1133 13.1723 12.6477 12.0278 12.8484C10.8832 13.05 9.78791 12.8797 8.94338 12.4445C8.90275 12.7523 8.89338 13.068 8.95041 13.3898C9.25041 15.0852 10.8707 16.2172 12.5707 15.9187C14.2699 15.6203 15.4051 14.0031 15.1051 12.3078V12.3078ZM47.4051 9.44531C40.4535 5.5875 32.4496 4.17891 24.5942 5.43359C22.4606 5.77422 20.7598 7.48516 20.3723 9.68047L17.8934 23.7047C16.691 30.5055 25.3371 39.0383 30.2613 39.9039C35.1856 40.7703 46.2356 35.7016 47.4379 28.9008L49.9168 14.8766C50.3051 12.6805 49.2934 10.493 47.4051 9.44531V9.44531ZM26.0582 17.0078C26.3582 15.3125 27.9785 14.1805 29.6785 14.4797C31.3785 14.7789 32.5129 16.3953 32.2137 18.0906C32.1567 18.4125 32.0395 18.7055 31.8957 18.9813C31.2512 18.2852 30.2809 17.7508 29.1363 17.55C27.9918 17.3484 26.8965 17.5187 26.052 17.9539C26.0106 17.6453 26.0012 17.3297 26.0582 17.0078ZM31.5637 32.5359C27.2137 31.7711 24.2574 27.9055 24.6074 23.7156C26.2168 25.7109 28.9988 27.3227 32.3801 27.9172C35.7613 28.5117 38.9285 27.9461 41.1246 26.6203C40.0168 30.6781 35.9129 33.3008 31.5637 32.5359V32.5359ZM41.7434 20.7125C41.0988 20.0164 40.1278 19.482 38.9832 19.2813C37.8387 19.0797 36.7434 19.25 35.8988 19.6852C35.8582 19.3773 35.8488 19.0617 35.9059 18.7398C36.2059 17.0445 37.8262 15.9125 39.5262 16.2109C41.2254 16.5102 42.3606 18.1266 42.0613 19.8219C42.0043 20.1445 41.8871 20.4375 41.7434 20.7125Z" fill="#EC5242"/>
</g>
<defs>
<clipPath id="clip0_19_188">
<rect width="50" height="40" fill="white"/>
</clipPath>
</defs>
</svg>
